<mxfile host="app.diagrams.net" modified="2022-03-04T13:12:38.859Z" agent="5.0 (Windows NT 10.0; Win64; x64) AppleWebKit/537.36 (KHTML, like Gecko) Chrome/97.0.4692.71 Safari/537.36" etag="QSZlG5xzpiaEC44XnoWc" version="16.6.6" type="github">
  <diagram id="Hh7kF4fS-FXk80I3GIZw" name="FinalitÃ©s et missions">
    <mxGraphModel dx="460" dy="762" grid="1" gridSize="10" guides="1" tooltips="1" connect="1" arrows="1" fold="1" page="1" pageScale="1" pageWidth="827" pageHeight="1169" math="0" shadow="0">
      <root>
        <mxCell id="0" />
        <mxCell id="1" parent="0" />
        <mxCell id="7MBZiMfPTqnYKmr78GWG-1" value="&lt;p style=&quot;margin:0px;margin-top:4px;text-align:center;&quot;&gt;&amp;lt;&amp;lt;block&amp;gt;&amp;gt;&lt;br/&gt;{encapsulated}&lt;br/&gt;&lt;b&gt;Block1&lt;/b&gt;&lt;/p&gt;&lt;hr/&gt;&lt;p style=&quot;font-size:10px;margin:0px;text-align:center;&quot;&gt;&lt;i&gt;constraints&lt;/i&gt;&lt;/p&gt;&lt;p style=&quot;margin:0px;margin-left:8px;text-align:left;&quot;&gt;{x &amp;gt; y}&lt;/p&gt;&lt;hr/&gt;&lt;p style=&quot;font-size:10px;margin:0px;text-align:center;&quot;&gt;&lt;i&gt;operations&lt;/i&gt;&lt;/p&gt;&lt;p style=&quot;margin:0px;margin-left:8px;text-align:left;&quot;&gt;operation1 (p1 : Type1) : Type2&lt;/p&gt;&lt;hr/&gt;&lt;p style=&quot;font-size:10px;margin:0px;text-align:center;&quot;&gt;&lt;i&gt;parts&lt;/i&gt;&lt;/p&gt;&lt;p style=&quot;margin:0px;margin-left:8px;text-align:left;&quot;&gt;property1 : Block2&lt;/p&gt;&lt;hr/&gt;&lt;p style=&quot;font-size:10px;margin:0px;text-align:center;&quot;&gt;&lt;i&gt;references&lt;/i&gt;&lt;/p&gt;&lt;p style=&quot;margin:0px;margin-left:8px;text-align:left;&quot;&gt;property2 : Block3 [0..*] {ordered}&lt;/p&gt;&lt;hr/&gt;&lt;p style=&quot;font-size:10px;margin:0px;text-align:center;&quot;&gt;&lt;i&gt;values&lt;/i&gt;&lt;/p&gt;&lt;p style=&quot;margin:0px;margin-left:8px;text-align:left;&quot;&gt;property3 : Integer = 99 {readOnly}&lt;br/&gt;property4 : Real = 10.0&lt;/p&gt;&lt;hr/&gt;&lt;p style=&quot;font-size:10px;margin:0px;text-align:center;&quot;&gt;&lt;i&gt;properties&lt;/i&gt;&lt;/p&gt;&lt;p style=&quot;margin:0px;margin-left:8px;text-align:left;&quot;&gt;property5 : Type1&lt;/p&gt;" style="shape=rect;html=1;overflow=fill;verticalAlign=top;align=left;whiteSpace=wrap;" parent="1" vertex="1">
          <mxGeometry x="350" y="120" width="220" height="340" as="geometry" />
        </mxCell>
        <mxCell id="7MBZiMfPTqnYKmr78GWG-2" value="ActorName" style="shape=umlActor;html=1;verticalLabelPosition=bottom;verticalAlign=top;align=center;" parent="1" vertex="1">
          <mxGeometry x="180" y="260" width="30" height="60" as="geometry" />
        </mxCell>
      </root>
    </mxGraphModel>
  </diagram>
</mxfile>
